# xmcd
#
# Track frame offsets: 
#        150
#        15343
#        35669
#        63991
#        84656
#        104855
#        132569
#        153593
#        179309
#        202349
#        233472
#        251960
#
# Disc length: 3645 seconds
#
# Revision: 0
# Processed by: cddbd v1.5.2PL0 Copyright (c) Steve Scherf et al.
# Submitted via: ExactAudioCopy v0.95b4
#
DISCID=ac0e3b0c
DTITLE=Michael Burks - Iron Man
DYEAR=2008
DGENRE=Blues
TTITLE0=Love Disease
TTITLE1=Strange Feeling
TTITLE2=Empty Promises
TTITLE3=Salty Tears
TTITLE4=No More Crying
TTITLE5=Ashes In My Ashtray
TTITLE6=Don't Waste My Time
TTITLE7=Quiet Little Town
TTITLE8=Hard Come, Easy Go
TTITLE9=Icepick Through My Heart
TTITLE10=Fire And Water
TTITLE11=Changed Man
EXTD=
EXTT0=
EXTT1=
EXTT2=
EXTT3=
EXTT4=
EXTT5=
EXTT6=
EXTT7=
EXTT8=
EXTT9=
EXTT10=
EXTT11=
PLAYORDER=
